<?xml version="1.0" standalone="no"?>
<svg xmlns:xlink="http://www.w3.org/1999/xlink" id="wave" style="transform:rotate(0deg); transition: 0.3s" viewBox="0 0 1440 490" version="1.1" xmlns="http://www.w3.org/2000/svg"><defs><linearGradient id="sw-gradient-0" x1="0" x2="0" y1="1" y2="0"><stop stop-color="rgba(162, 219, 255, 1)" offset="0%"/><stop stop-color="rgba(205, 236, 255, 1)" offset="100%"/></linearGradient></defs><path style="transform:translate(0, 0px); opacity:1" fill="url(#sw-gradient-0)" d="M0,98L60,89.8C120,82,240,65,360,65.3C480,65,600,82,720,130.7C840,180,960,261,1080,277.7C1200,294,1320,245,1440,196C1560,147,1680,98,1800,73.5C1920,49,2040,49,2160,65.3C2280,82,2400,114,2520,163.3C2640,212,2760,278,2880,277.7C3000,278,3120,212,3240,204.2C3360,196,3480,245,3600,236.8C3720,229,3840,163,3960,147C4080,131,4200,163,4320,147C4440,131,4560,65,4680,57.2C4800,49,4920,98,5040,98C5160,98,5280,49,5400,89.8C5520,131,5640,261,5760,269.5C5880,278,6000,163,6120,163.3C6240,163,6360,278,6480,343C6600,408,6720,425,6840,408.3C6960,392,7080,343,7200,294C7320,245,7440,196,7560,155.2C7680,114,7800,82,7920,65.3C8040,49,8160,49,8280,114.3C8400,180,8520,310,8580,375.7L8640,441L8640,490L8580,490C8520,490,8400,490,8280,490C8160,490,8040,490,7920,490C7800,490,7680,490,7560,490C7440,490,7320,490,7200,490C7080,490,6960,490,6840,490C6720,490,6600,490,6480,490C6360,490,6240,490,6120,490C6000,490,5880,490,5760,490C5640,490,5520,490,5400,490C5280,490,5160,490,5040,490C4920,490,4800,490,4680,490C4560,490,4440,490,4320,490C4200,490,4080,490,3960,490C3840,490,3720,490,3600,490C3480,490,3360,490,3240,490C3120,490,3000,490,2880,490C2760,490,2640,490,2520,490C2400,490,2280,490,2160,490C2040,490,1920,490,1800,490C1680,490,1560,490,1440,490C1320,490,1200,490,1080,490C960,490,840,490,720,490C600,490,480,490,360,490C240,490,120,490,60,490L0,490Z"/></svg>